<?xml version="1.0" encoding="UTF-8"?><svg version="1.1" viewBox="0 0 2048 1144" width="512" height="286" xmlns="http://www.w3.org/2000/svg"><path transform="translate(995,85)" d="m0 0h560l44 2 33 4 27 5 35 9 30 10 28 11 40 20 23 14 21 14 17 13 13 10 10 9 8 7 15 14 14 14 7 8 12 14 12 15 13 18 14 21 14 24 12 23 12 26 13 36 6 19 9 36 6 35 3 23 2 22v52l-4 39-6 39-8 36-7 24-11 33-14 34-21 42-14 23-9 14-10 14-9 12-10 13-11 12-7 8-9 10-11 11-8 7-7 7-11 9-13 10-19 14-27 16-14 8-33 15-36 12-26 6-22 4-29 3-13 1h-19l-42-2-64-6-31-4-53-8-41-7-42-9-57-14-48-11-34-6-40-6-56-5-48-2h-60l-42 2-54 5-41 6-29 5-41 9-77 19-48 10-68 11-37 5-65 6-47 2h-20l-37-3-38-7-19-5-35-12-30-14-19-10-16-10-11-7-19-14-14-11-12-11-8-7-7-7-8-7-22-24-11-13-14-19-13-18-22-36-17-33-13-30-10-27-11-35-7-29-5-26-6-44-1-11v-63l4-33 6-35 6-26 8-28 11-31 8-19 17-35 18-30 7-11 10-14 16-21 8-10 15-16 9-10 17-17 8-7 13-12 20-15 17-13 18-11 21-13 10-6 43-20 29-11 26-8 36-9 36-6 19-2 19-1z" fill="#CDD4D8"/><path transform="translate(432,337)" d="m0 0h215l1 143h142v216l-143 1v85l-1 57-7 1h-207l-1-1v-143h-143l-1-57v-85l1-73 3-1h140v-142z" fill="#39454F"/><path transform="translate(1535,732)" d="m0 0h19l14 2 16 5 16 8 11 7 10 9 10 11 8 13 7 15 5 19 1 5v29l-5 21-8 17-8 12-11 12-7 7-14 9-17 8-13 4-17 3h-11l-22-4-16-5-16-8-11-8-8-7-7-8-10-15-7-15-5-18-2-12v-18l2-13 5-17 8-16 8-11 11-12 9-8 16-10 15-6 16-4z" fill="#EDBA20"/><path transform="translate(1791,480)" d="m0 0h12l19 3 17 6 17 9 14 11 7 7 11 15 8 16 5 15 2 9 1 9v16l-3 18-6 18-10 18-9 11-8 8-12 9-17 9-18 6-19 3h-14l-20-4-17-6-16-9-11-9-9-9-11-15-9-19-4-14-2-14v-17l3-19 5-15 8-15 8-11 11-12 14-11 15-8 18-6 10-2z" fill="#DC382F"/><path transform="translate(1533,229)" d="m0 0h22l20 4 13 5 17 9 10 8 6 5 7 8 9 13 8 16 5 15 2 10v28l-4 18-6 15-9 16-9 10-5 6-16 12-12 7-19 7-16 3h-20l-16-3-16-5-17-9-12-9-13-13-10-14-8-17-5-18-1-7v-25l4-19 5-13 6-12 9-12 11-12 15-11 17-9 17-5z" fill="#386EB7"/><path transform="translate(1285,480)" d="m0 0h16l17 3 18 6 17 9 11 9 8 7 10 13 9 16 6 16 3 14v30l-4 17-6 15-7 12-10 13-10 10-13 9-17 9-20 6-7 1h-23l-16-3-16-5-15-8-13-10-13-13-7-10-7-12-6-16-3-14-1-8v-16l3-19 5-15 8-15 7-10 12-13 14-11 15-8 17-6z" fill="#48AF64"/><path transform="translate(980,193)" d="m0 0h149l16 1 9 4 10 9 6 11 2 6v10l-4 10-7 9-7 6-7 3-8 1-70 1h-34l-67-1-9-1-11-6-8-9-4-9-1-5v-9l3-11 6-8 7-6 9-4 5-1z" fill="#B2B9BD"/></svg>
