<svg viewBox="0 0 1200 600" xmlns="http://www.w3.org/2000/svg">
  <style>
    .star {
      animation: twinkle 5s ease-in-out infinite;
    }

    .point {
      fill: #94a7c6;
    }

    .line {
      stroke: #94a7c6;
      stroke-width: 1px;
    }

    @keyframes twinkle {
      0% {
        opacity: 1;
      }
      50% {
        opacity: 0.5;
      }
      100% {
        opacity: 1;
      }
    }
  </style>
  <rect width="100%" height="100%" fill="#0f1421" />
  <g class="star">
    <circle class="point" cx="452" cy="119" r="2" />
    <circle class="point" cx="1024" cy="372" r="2" />
    <circle class="point" cx="218" cy="587" r="2" />
    <circle class="point" cx="679" cy="15" r="2" />
    <line class="line" x1="87" y1="301" x2="89" y2="303" />
    <circle class="point" cx="935" cy="186" r="2" />
    <circle class="point" cx="334" cy="474" r="2" />
    <line class="line" x1="781" y1="259" x2="783" y2="261" />
    <circle class="point" cx="23" cy="132" r="2" />
    <circle class="point" cx="590" cy="545" r="2" />
    <circle class="point" cx="1167" cy="408" r="2" />
    <line class="line" x1="156" y1="43" x2="158" y2="45" />
    <circle class="point" cx="842" cy="530" r="2" />
    <circle class="point" cx="412" cy="215" r="2" />
    <line class="line" x1="1089" y1="72" x2="1091" y2="74" />
    <circle class="point" cx="278" cy="387" r="2" />
    <line class="line" x1="734" y1="158" x2="736" y2="160" />
    <circle class="point" cx="501" cy="472" r="2" />
    <circle class="point" cx="1033" cy="301" r="2" />
    <line class="line" x1="45" y1="244" x2="47" y2="246" />
    <circle class="point" cx="123" cy="478" r="2" />
    <line class="line" x1="900" y1="120" x2="902" y2="122" />
    <circle class="point" cx="657" cy="395" r="2" />
    <line class="line" x1="345" y1="230" x2="347" y2="232" />
    <circle class="point" cx="1112" cy="525" r="2" />
    <line class="line" x1="201" y1="89" x2="203" y2="91" />
    <circle class="point" cx="789" cy="444" r="2" />
    <line class="line" x1="567" y1="150" x2="569" y2="152" />
    <circle class="point" cx="400" cy="340" r="2" />
    <circle class="point" cx="876" cy="460" r="2" />
    <line class="line" x1="234" y1="150" x2="236" y2="152" />
    <circle class="point" cx="1145" cy="310" r="2" />
    <line class="line" x1="678" y1="230" x2="680" y2="232" />
    <circle class="point" cx="312" cy="520" r="2" />
    <line class="line" x1="890" y1="430" x2="892" y2="432" />
    <circle class="point" cx="567" cy="80" r="2" />
  </g>
</svg>