<svg width="196" height="52" viewBox="0 0 196 52" fill="none" xmlns="http://www.w3.org/2000/svg">
<path d="M24.4937 6.736C24.2134 15.2767 24.2219 24.4701 24.4937 33.0636C24.7345 24.4729 24.7424 15.2771 24.4937 6.736ZM48.9083 28.5265C48.9022 27.4951 48.7623 26.4869 48.2476 25.5644C47.6424 24.4796 46.8014 23.8083 45.4708 23.8947C44.6828 23.9456 44.6434 23.9408 44.6424 24.7574V34.7269C44.6384 35.2059 44.6661 35.6846 44.7257 36.1598C44.9217 37.6426 45.4188 39.0694 46.1871 40.3515C46.9564 41.6355 47.9794 42.7478 49.1927 43.6207C50.4091 44.4946 51.7901 45.1104 53.2515 45.4311C54.7139 45.7519 56.2263 45.7706 57.6963 45.4862C60.1831 45.0018 62.4279 43.6722 64.0524 41.7214C65.6724 39.7761 66.5701 37.3272 66.5923 34.7921C66.6029 33.1624 66.5923 31.5328 66.5923 29.9032V24.5829C66.5923 24.2886 66.5923 23.9694 66.2033 23.9224C65.0349 23.7835 64.005 24.0108 63.2907 25.0546C62.6976 25.916 62.3829 26.9398 62.39 27.9868C62.3814 30.0958 62.39 32.2047 62.3845 34.3137C62.3915 34.9214 62.3339 35.5282 62.2122 36.1236C61.4732 39.5286 58.3555 41.7724 54.8619 41.4208C51.5012 41.0814 48.9427 38.2236 48.9204 34.7565C48.9033 32.6802 48.9214 30.6031 48.9083 28.5265ZM0.00235158 44.9396C0.00235158 45.5726 0.0935798 45.6539 0.730966 45.6473C1.63517 45.6443 2.5029 45.2892 3.1515 44.6573C3.99352 43.8647 4.26438 42.865 4.26342 41.7527V25.4707C4.26342 25.1197 4.25645 24.7682 4.26342 24.4163C4.26978 24.0645 4.09142 23.9046 3.73534 23.8966C3.11604 23.8823 2.52366 23.9761 1.97624 24.28C0.64984 25.0136 0.00896905 26.1569 0.00422073 27.6534C-0.00527591 30.5109 0.00422073 33.3684 0.00422073 36.225C0.00235171 39.131 0.0016949 42.0356 0.00235158 44.9396ZM15.0462 51.9338L15.0652 52C15.1476 51.9596 15.2331 51.9237 15.3139 51.8788C16.9998 50.9473 18.7916 50.2618 20.6169 49.6662C22.9421 48.9085 25.3022 48.8247 27.66 49.4748C29.6964 50.0355 31.6655 50.818 33.532 51.8091C33.6482 51.8702 33.7461 51.9929 33.9159 51.9576C33.8995 51.9262 33.8788 51.8969 33.8545 51.8712C30.9178 49.6087 27.9812 47.3461 25.0446 45.0826C24.6309 44.7623 24.2967 44.7952 23.8925 45.1104C20.9463 47.3926 17.9974 49.6668 15.0462 51.9338ZM13.3016 19.5408C13.1097 19.7881 13.1997 19.9731 13.3863 20.1698C14.0927 20.9212 14.5181 21.8271 14.8109 22.802C15.172 24.0031 15.3101 25.2387 15.3668 26.4869C15.4543 28.4038 15.427 30.3211 15.3918 32.2384C15.3443 34.7946 15.3313 37.3508 15.3525 39.9069C15.3763 42.7271 14.9876 45.4736 14.0898 48.1508C13.7395 49.195 13.3897 50.2391 12.8984 51.3448C12.9776 51.3191 13.0546 51.2872 13.1287 51.2489C15.6915 49.1803 18.2432 47.0966 20.9134 45.166C21.2571 44.9174 21.26 44.6052 21.0506 44.285C20.8401 43.9642 20.6112 43.6561 20.365 43.3616C19.6535 42.5114 19.3722 41.5183 19.3552 40.4323C19.333 39.0108 19.3051 37.5892 19.288 36.1684C19.2265 30.9289 19.2658 25.6903 19.2024 20.4476C19.1217 13.7231 19.1207 6.99756 19.0853 0.273331V0.00348548H18.9892C18.6946 2.67315 18.3937 5.33616 17.8843 7.97213C17.0863 12.1134 15.8917 16.1044 13.3016 19.5408ZM127.631 25.9751C127.019 24.4901 126.081 23.8658 124.485 23.9052C123.928 23.918 123.838 23.9904 123.838 24.5464C123.838 28.1413 123.78 31.7359 123.867 35.3296C123.939 38.3378 125.24 40.8743 127.448 42.8746C130.033 45.216 133.134 46.0201 136.579 45.5342C141.395 44.8543 145.458 40.4065 145.725 35.5645C145.822 33.7911 145.743 32.0178 145.784 30.5732V24.8308C145.787 24.6554 145.778 24.4799 145.756 24.3057C145.749 24.2006 145.703 24.102 145.627 24.0291C145.551 23.9563 145.451 23.9143 145.346 23.9116C144.098 23.7685 143.072 24.1099 142.362 25.2065C141.813 26.0577 141.525 27.0516 141.532 28.0653C141.522 30.3024 141.547 32.5388 141.521 34.7753C141.462 39.6453 136.5 42.8681 132.07 40.8788C129.432 39.6938 128.133 37.5495 128.063 34.6891C128.012 32.5801 128.047 30.4712 128.053 28.3625C128.073 27.5462 127.929 26.7349 127.631 25.9751ZM190.119 45.421C189.964 45.7287 189.844 46.0555 189.659 46.4899C191.469 46.0277 193.211 45.7534 194.7 44.7219C195.247 44.3385 195.595 43.8213 195.659 43.1328C195.704 42.6246 195.774 42.1184 195.822 41.6103C196.046 39.2371 195.999 36.8588 195.939 34.4793C195.854 31.1444 194.498 28.4318 191.949 26.3123C190.102 24.7784 188.003 23.9291 185.542 24.0921C183.884 24.2015 182.283 24.5552 180.693 24.9923C178.295 25.6577 175.78 25.7885 173.326 25.3756C171.808 25.1255 170.356 24.6 168.84 24.3404C166.507 23.9408 164.225 23.8852 162.082 25.1286C158.817 27.0237 156.752 29.7595 156.417 33.5639C156.157 36.5559 156.281 39.5589 156.513 42.5584C156.625 43.9582 157.329 44.7866 158.555 45.2907C158.732 45.3635 158.908 45.4397 159.087 45.5099C160.047 45.8812 161.042 46.1121 162.038 46.3495C162.188 46.3864 162.383 46.4945 162.49 46.3591C162.596 46.2242 162.443 46.0595 162.382 45.9191C161.766 44.5148 161.123 43.1242 160.908 41.58C160.784 40.6939 160.678 39.8064 160.633 38.9138C160.549 37.2535 160.446 35.581 160.637 33.9358C161.047 30.419 163.883 28.031 167.436 28.0695C170.324 28.1012 172.386 29.626 173.253 32.3726C173.324 32.6014 173.392 32.8316 173.45 33.0636C174.302 36.4398 175.153 39.8165 176.003 43.1929C176.031 43.3025 176.08 43.406 176.147 43.5864C176.192 43.4338 176.212 43.3742 176.228 43.3126C176.996 40.2454 177.766 37.1779 178.54 34.1103C178.778 33.1662 179.012 32.221 179.39 31.3179C179.74 30.4868 180.324 29.7761 181.07 29.2726C182.35 28.3791 183.769 28.0167 185.328 28.0666C188.611 28.1708 191.428 30.8742 191.654 34.1449C191.768 35.7917 191.68 37.4347 191.613 39.076C191.524 41.2819 191.126 43.4257 190.119 45.421ZM29.7983 12.1929C29.7166 18.2131 29.7888 24.2348 29.6928 30.255C29.6428 33.3846 29.6526 36.5164 29.6621 39.6493C29.6668 41.2375 29.3406 42.6908 28.2112 43.8834C28.1064 44.0031 28.0116 44.1314 27.928 44.2668C27.6778 44.6386 27.736 44.9321 28.1118 45.2033C30.6768 47.0602 33.1356 49.054 35.5955 51.0448C35.7089 51.1408 35.8077 51.2797 36.0314 51.2519C35.2116 49.4076 34.6547 47.5133 34.1842 45.5867C34.0018 44.8427 33.8212 44.0961 33.7569 43.3298C33.5975 41.4501 33.6435 39.5639 33.607 37.6801C33.5456 34.4554 33.5763 31.2289 33.562 27.9982C33.5504 26.8964 33.6174 25.795 33.7626 24.7027C33.9663 23.2352 34.3147 21.8125 35.2286 20.598C35.8258 19.8033 35.8347 19.8065 35.2508 18.9686C33.224 16.0552 32.1219 12.7692 31.3651 9.34525C30.6847 6.26208 30.314 3.13531 29.9998 0H29.8772C29.8367 4.06729 29.8531 8.12979 29.7983 12.1929ZM87.5359 45.5579C88.0774 45.5675 88.38 45.2604 88.6093 44.8189C91.4078 39.4316 94.2083 34.0458 97.0103 28.661C97.2053 28.3088 97.3079 27.913 97.3089 27.5103C97.2735 26.8673 96.9634 26.223 96.5764 25.6105C95.9591 24.6337 95.1908 23.7759 94.424 22.918C94.321 22.8035 94.2427 22.5928 94.0735 22.6303C93.9042 22.6678 93.9295 22.891 93.9007 23.0416C93.5799 24.7555 93.2218 26.4589 92.4605 28.0447C90.9906 31.0967 89.3554 34.0636 87.8087 37.0762C87.7466 37.196 87.7011 37.3848 87.5268 37.3572C87.3515 37.3295 87.3137 37.1347 87.2389 36.9967C85.7715 34.1592 84.3061 31.3201 82.8422 28.4798C82.1536 27.1437 81.6414 25.7232 81.3187 24.2542C81.2161 23.7864 81.1014 23.3213 80.9898 22.8556C80.9479 22.6802 80.8817 22.5105 80.6887 22.733C79.6653 23.9176 78.5909 25.068 77.9888 26.5482C77.6816 27.3047 77.7412 28.0294 78.1241 28.7614C80.9272 34.1096 83.7211 39.4624 86.507 44.8199C86.7317 45.2503 87.0166 45.5494 87.5359 45.5579ZM108.475 44.4007C108.475 45.4897 108.62 45.6079 109.714 45.4064L109.761 45.3958C111.505 45.0477 112.673 43.6258 112.675 41.8083C112.68 36.1572 112.68 30.5062 112.675 24.8553C112.675 23.6427 112.524 23.5209 111.307 23.753C111.26 23.7616 111.211 23.7759 111.167 23.7873C109.582 24.1795 108.494 25.5301 108.479 27.2087C108.459 30.0843 108.474 32.9555 108.474 35.8283H108.469C108.469 38.686 108.471 41.5436 108.475 44.4007Z" fill="white"/>
</svg>
